<svg width="110" height="116" viewBox="0 0 110 116" fill="none" xmlns="http://www.w3.org/2000/svg">
<circle cx="55" cy="61" r="50" stroke="white" stroke-width="10"/>
<path d="M55.5455 95.3636C48.3636 95.3636 42.1818 93.9091 37 91C31.8485 88.0606 27.8788 83.9091 25.0909 78.5455C22.303 73.1515 20.9091 66.7727 20.9091 59.4091C20.9091 52.2273 22.303 45.9242 25.0909 40.5C27.8788 35.0758 31.803 30.8485 36.8636 27.8182C41.9545 24.7879 47.9242 23.2727 54.7727 23.2727C59.3788 23.2727 63.6667 24.0152 67.6364 25.5C71.6364 26.9545 75.1212 29.1515 78.0909 32.0909C81.0909 35.0303 83.4242 38.7273 85.0909 43.1818C86.7576 47.6061 87.5909 52.7879 87.5909 58.7273V64.0455H28.6364V52.0455H69.3636C69.3636 49.2576 68.7576 46.7879 67.5455 44.6364C66.3333 42.4848 64.6515 40.803 62.5 39.5909C60.3788 38.3485 57.9091 37.7273 55.0909 37.7273C52.1515 37.7273 49.5455 38.4091 47.2727 39.7727C45.0303 41.1061 43.2727 42.9091 42 45.1818C40.7273 47.4242 40.0758 49.9242 40.0455 52.6818V64.0909C40.0455 67.5455 40.6818 70.5303 41.9545 73.0455C43.2576 75.5606 45.0909 77.5 47.4545 78.8636C49.8182 80.2273 52.6212 80.9091 55.8636 80.9091C58.0152 80.9091 59.9849 80.6061 61.7727 80C63.5606 79.3939 65.0909 78.4848 66.3636 77.2727C67.6364 76.0606 68.6061 74.5758 69.2727 72.8182L87.1818 74C86.2727 78.303 84.4091 82.0606 81.5909 85.2727C78.803 88.4545 75.197 90.9394 70.7727 92.7273C66.3788 94.4848 61.303 95.3636 55.5455 95.3636Z" fill="white"/>
</svg>
